# xmcd
#
# Track frame offsets:
#	150
#	18650
#	29222
#	42374
#	59749
#	78611
#	97184
#	114286
#	127705
#	146371
#	156928
#	170132
#	187442
#	206334
#	224548
#	241718
#
# Disc length: 3405
#
# Revision: 1
# Processed by: cddbd v1.5.2PL0 Copyright (c) Steve Scherf et al.
# Submitted via: kJams Lite (development) 1.0patch50.56
#
DISCID=f20d4b10
DTITLE=Shania Twain - PSCDG1225 Best of Shania Twain
DYEAR=1998
DGENRE=Country
TTITLE0=Twain, Shania - Track
TTITLE1=Twain, Shania - Track
TTITLE2=Twain, Shania - Track
TTITLE3=Twain, Shania - Track
TTITLE4=Twain, Shania - Track
TTITLE5=Twain, Shania - Track
TTITLE6=Twain, Shania - Track
TTITLE7=Twain, Shania - Track
TTITLE8=Twain, Shania - Track
TTITLE9=Twain, Shania - Track
TTITLE10=Twain, Shania - Track
TTITLE11=Twain, Shania - Track
TTITLE12=Twain, Shania - Track
TTITLE13=Twain, Shania - Track
TTITLE14=Twain, Shania - Track
TTITLE15=Twain, Shania - Track
EXTD=
EXTT0=
EXTT1=
EXTT2=
EXTT3=
EXTT4=
EXTT5=
EXTT6=
EXTT7=
EXTT8=
EXTT9=
EXTT10=
EXTT11=
EXTT12=
EXTT13=
EXTT14=
EXTT15=
PLAYORDER=
